<svg width="21" height="25" viewBox="0 0 21 25" fill="none" xmlns="http://www.w3.org/2000/svg">
<path d="M19.5909 0H4.36364C4.23864 0 4.13636 0.100446 4.13636 0.223214V1.78571C4.13636 1.90848 4.23864 2.00893 4.36364 2.00893H18.4545V21.2054C18.4545 21.3281 18.5568 21.4286 18.6818 21.4286H20.2727C20.3977 21.4286 20.5 21.3281 20.5 21.2054V0.892857C20.5 0.398996 20.0938 0 19.5909 0ZM15.9545 3.57143H1.40909C0.90625 3.57143 0.5 3.97042 0.5 4.46429V19.2718C0.5 19.5089 0.596591 19.7349 0.767045 19.9023L5.69034 24.7377C5.75284 24.7991 5.82386 24.8493 5.90057 24.8912V24.9442H6.01989C6.11932 24.9805 6.22443 25 6.33239 25H15.9545C16.4574 25 16.8636 24.601 16.8636 24.1071V4.46429C16.8636 3.97042 16.4574 3.57143 15.9545 3.57143ZM6.80682 23.2143H6.80114L2.54545 19.0346V19.029H6.80682V23.2143Z" fill="white"/>
</svg>
