<svg width="41" height="40" viewBox="0 0 41 40" fill="none" xmlns="http://www.w3.org/2000/svg">
<path d="M27.0625 0.3125H13.9375V10.1562H27.0625V0.3125ZM27.0625 13.4375H13.9375V26.5625H27.0625V13.4375ZM30.3438 26.5625V13.4375H40.1875V26.5625H30.3438ZM27.0625 29.8438H13.9375V39.6875H27.0625V29.8438ZM30.3438 39.6875V29.8438H40.1875V31.4844C40.1875 33.66 39.3232 35.7465 37.7849 37.2849C36.2465 38.8232 34.16 39.6875 31.9844 39.6875H30.3438ZM30.3438 10.1562V0.3125H31.9844C34.16 0.3125 36.2465 1.17676 37.7849 2.71514C39.3232 4.25352 40.1875 6.34002 40.1875 8.51562V10.1562H30.3438ZM9.01562 0.3125H10.6562V10.1562H0.8125V8.51562C0.8125 6.34002 1.67676 4.25352 3.21514 2.71514C4.75352 1.17676 6.84002 0.3125 9.01562 0.3125ZM0.8125 13.4375H10.6562V26.5625H0.8125V13.4375ZM0.8125 29.8438H10.6562V39.6875H9.01562C6.84002 39.6875 4.75352 38.8232 3.21514 37.2849C1.67676 35.7465 0.8125 33.66 0.8125 31.4844V29.8438Z" fill="#3CC255"/>
</svg>
